<svg xmlns="http://www.w3.org/2000/svg" viewBox="0 0 512 512">
  <defs>
    <linearGradient id="bg" x1="64" y1="48" x2="448" y2="464" gradientUnits="userSpaceOnUse">
      <stop stop-color="#111C2B"/>
      <stop offset="1" stop-color="#070B12"/>
    </linearGradient>
    <linearGradient id="wave" x1="112" y1="104" x2="410" y2="414" gradientUnits="userSpaceOnUse">
      <stop stop-color="#55E6FF"/>
      <stop offset="0.48" stop-color="#5378FF"/>
      <stop offset="1" stop-color="#BD63F6"/>
    </linearGradient>
  </defs>
  <rect x="16" y="16" width="480" height="480" rx="120" fill="url(#bg)"/>
  <path d="M256 92c-48 0-82 32-102 82l-40 101c-19 48 16 101 68 101 32 0 58-18 74-48 16 30 42 48 74 48 52 0 87-53 68-101l-40-101c-20-50-54-82-102-82Z" fill="none" stroke="url(#wave)" stroke-width="34" stroke-linecap="round" stroke-linejoin="round"/>
  <path d="M124 304c42-13 71-5 97 25 23 27 48 41 83 31 38-10 55-46 84-59" fill="none" stroke="#D4F7FF" stroke-opacity=".88" stroke-width="18" stroke-linecap="round"/>
</svg>
